<svg width="256" height="251" xmlns="http://www.w3.org/2000/svg">
 <!-- Created with Method Draw - http://github.com/duopixel/Method-Draw/ -->

 <g>
  <title>background</title>
  <rect x="-1" y="-1" width="258" height="253" id="canvas_background" fill="#c8c8c8"/>
  <g id="canvasGrid" display="none">
   <rect id="svg_1" width="100%" height="100%" x="0" y="0" stroke-width="0" fill="url(#gridpattern)"/>
  </g>
 </g>
 <g>
  <title>Layer 1</title>
  <rect fill="#c8c8c8" stroke="#000" stroke-width="1.5" x="64" y="61.5" width="128" height="128" id="svg_2"/>
  <line fill="#fff" stroke-width="1.5" x1="191.5" y1="189.953125" x2="330.5" y2="321.953125" id="svg_6" stroke-linejoin="null" stroke-linecap="null"/>
  <path fill="#f96464" stroke="#000000" stroke-width="1.5" d="m63.5,60.95313c-64,-60 -63,-60 -63.5,-60.95313c0.5,0.95313 0.5,252.95313 0,252c0.5,0.95313 65.5,-61.04687 64,-61" id="svg_14"/>
  <path fill="#A0D58A" stroke-width="1.5" stroke-opacity="null" d="m191.68142,61.95313c65.8329,-60 64.80426,-60 65.31858,-60.95313c-0.51432,0.95313 -0.51432,252.95313 0,252c-0.51432,0.95313 -57.43314,-54.04687 -63.86154,-62" id="svg_15" stroke="#000"/>
  <path fill="#ffffff" stroke="#000" stroke-width="1.5" stroke-opacity="null" d="m149.22105,228.12523c-4.13899,-1.86649 1.26208,-5.59823 3.30688,-7.24897c1.37735,-1.27129 -7.89369,0.17833 -3.97954,-4.23483c4.2944,-3.60531 2.6722,-9.70469 -1.62034,-12.53991c-5.90743,-3.98877 -13.48704,-7.4026 -15.66946,-14.85072c-2.20676,-4.6391 3.0266,-9.52502 -0.33947,-13.71425c-2.70937,-5.43927 0.45595,-11.11129 2.42343,-16.14993c0.90479,-6.96993 -4.63782,-12.48183 -7.68591,-18.20801c-3.77423,-5.47208 -5.94986,-11.8483 -6.2625,-18.49309c-0.82079,-2.83628 0.08755,-7.24093 3.36514,-3.41706c6.86376,5.496 14.39902,10.71105 19.20285,18.23375c0.90931,2.71726 4.55038,10.59266 4.7537,3.46104c0.09523,-9.80192 3.08896,-20.49238 10.76017,-27.06091c5.21782,-4.75446 8.03177,3.57041 8.27523,7.80079c1.3581,8.32362 -0.89311,16.57785 -3.40176,24.44064c-0.92094,3.65409 -3.31933,13.66764 3.52089,9.97547c15.7574,-6.0836 34.84867,0.30582 45.11236,13.37469c4.71813,6.32778 6.78437,14.45751 6.73772,22.26342c-2.42946,4.58594 6.59731,-0.08591 3.32645,5.20488c-1.92553,5.86094 -7.36589,9.04115 -11.1767,13.46495c-3.87782,3.54485 -1.00059,11.12389 -7.41338,12.24065c-9.35703,2.88454 -19.18267,4.14808 -28.92367,4.88354c-5.45103,1.11676 -8.09645,-5.11634 -2.87183,-7.70761c2.50483,-3.86139 9.67107,-4.13199 11.8003,-4.7437c-5.08817,0.49784 -11.36315,-1.57892 -15.65068,1.57226c-2.59658,4.21522 -4.67621,9.76337 -10.12127,10.96652c-2.447,0.67962 -4.96295,1.22462 -7.4686,0.48639l-0.00001,0z" id="svg_9"/>
  <path fill="#ffffff" stroke-width="1.5" stroke-opacity="null" fill-opacity="null" d="m100.2625,23.26835l9.1875,15.00001l30.625,0l9.18749,-15.00001l-48.99999,0z" id="svg_17" stroke="#000"/>
 </g>
</svg>